PathFileType	4	(X/Y/Z)	C:/Users/opensim2020/Desktop/walking_exp_matlab/subject06_walking12_straigt_02.trc	
DataRate	CameraRate	NumFrames	NumMarkers	Units	OrigDataRate	OrigDataStartFrame	OrigNumFrames	
100.00	100.00	4	48	mm	100.00	1574	215	
Frame#	Time	LFHD			RFHD			LBHD			RBHD			C7			T10			CLAV			STRN			RBAK			LSHO			LUPA			LELB			LFRM			LWRA			LWRB			LFIN			RSHO			RUPA			RELB			RFRM			RWRA			RWRB			RFIN			LASI			RASI			LPSI			RPSI			LTHI			LKNE			LTIB			LANK			LHEE			LTOE			RTHI			RKNE			RTIB			RANK			RHEE			RTOE			*39			*40			*41			*42			*43			*44			*45			*46			*47			
		X1	Y1	Z1	X2	Y2	Z2	X3	Y3	Z3	X4	Y4	Z4	X5	Y5	Z5	X6	Y6	Z6	X7	Y7	Z7	X8	Y8	Z8	X9	Y9	Z9	X10	Y10	Z10	X11	Y11	Z11	X12	Y12	Z12	X13	Y13	Z13	X14	Y14	Z14	X15	Y15	Z15	X16	Y16	Z16	X17	Y17	Z17	X18	Y18	Z18	X19	Y19	Z19	X20	Y20	Z20	X21	Y21	Z21	X22	Y22	Z22	X23	Y23	Z23	X24	Y24	Z24	X25	Y25	Z25	X26	Y26	Z26	X27	Y27	Z27	X28	Y28	Z28	X29	Y29	Z29	X30	Y30	Z30	X31	Y31	Z31	X32	Y32	Z32	X33	Y33	Z33	X34	Y34	Z34	X35	Y35	Z35	X36	Y36	Z36	X37	Y37	Z37	X38	Y38	Z38	X39	Y39	Z39	X40	Y40	Z40	X41	Y41	Z41	X42	Y42	Z42	X43	Y43	Z43	X44	Y44	Z44	X45	Y45	Z45	X46	Y46	Z46	X47	Y47	Z47	X48	Y48	Z48	

135	1.340	1490.46008	-184.26241	1645.13684	1358.46265	-181.02057	1633.50586	1492.83191	-47.87416	1595.74255	1363.46558	-46.90625	1590.15063	1433.21558	-42.41602	1431.22620	1417.28687	-18.11387	1100.53894	1433.40613	-155.39218	1358.16748	1434.36719	-202.36426	1183.64844	1347.28381	23.61900	1258.73608	1594.10730	-90.95861	1386.91895	1656.28943	-25.39491	1198.11035	1659.05017	21.18877	1094.97937	1678.88025	59.01126	949.31842	1637.75671	45.74534	818.86804	1670.73474	105.24456	839.19495	1670.56836	102.97339	748.21240	1272.90540	-107.09463	1391.51501	1180.81152	-107.21194	1193.15405	1165.50061	-148.51723	1080.52112	1149.54932	-224.61047	990.91364	1183.52673	-355.77271	921.41541	1146.93652	-312.32245	886.34857	1142.95483	-387.84454	851.96179	1519.42078	-201.24448	944.79877	1301.36987	-187.53864	946.49982	1504.38892	-39.17027	967.03961	1335.87183	-36.93854	972.69489	1589.01733	-202.11758	637.65100	1559.39771	-258.30072	488.45706	1551.12219	-289.91360	233.48048	1512.45251	-336.92865	68.95432	1463.19763	-304.05115	49.17471	1515.21826	-483.83380	65.88268	1254.12512	-84.50060	614.90118	1272.83704	-60.02113	489.39645	1276.60266	114.26488	278.58609	1318.43726	227.75084	130.04225	1362.14441	275.29895	128.25746	1326.36438	109.94562	35.60653	1432.36743	-84.23228	1687.03931																								 
136	1.350	1491.51025	-195.56969	1646.34790	1359.52185	-192.03725	1634.45850	1494.50769	-59.59704	1596.42883	1365.20886	-58.08310	1590.56860	1435.38025	-53.89876	1431.69250	1419.29785	-31.15249	1100.55481	1434.87354	-167.26773	1359.08948	1435.62329	-214.68643	1184.42017	1350.20544	11.81181	1258.45667	1596.11218	-103.58138	1387.21753	1658.19080	-39.10356	1197.88989	1660.83081	7.23021	1094.57800	1680.49829	44.61550	948.76239	1638.95630	31.09889	818.45734	1672.09631	90.64099	838.57593	1671.79077	88.26037	747.70746	1274.35413	-117.98383	1391.84094	1182.70215	-117.70344	1192.86414	1167.22925	-158.79153	1080.13806	1151.07031	-234.16734	989.79633	1184.28198	-364.96292	919.21820	1147.87549	-320.97101	884.55194	1143.61230	-396.12778	849.52917	1520.43652	-215.16287	945.37592	1302.49939	-201.03003	946.73486	1506.08435	-53.07375	968.20966	1337.53699	-50.68478	972.52881	1590.94348	-215.27675	638.53009	1561.59619	-269.71432	489.28323	1552.99500	-299.62479	234.65790	1513.41626	-341.92410	68.72102	1464.12231	-307.84464	50.62356	1516.37061	-487.71017	61.04442	1255.01917	-99.79541	614.07098	1273.19141	-76.84923	488.20651	1277.55737	102.38038	282.23895	1319.15918	220.45181	137.88260	1363.11096	267.23361	138.71077	1326.88867	109.04890	35.90081	1433.72083	-95.29948	1687.69092																								 
137	1.360	1492.61938	-206.91560	1647.85168	1360.60962	-202.94983	1635.74805	1496.26257	-71.27692	1597.66577	1366.98254	-69.24230	1591.58032	1437.46216	-65.63988	1432.93042	1421.09619	-43.95248	1101.17126	1436.29272	-178.94215	1360.35474	1436.89185	-227.02740	1185.77246	1352.99097	-0.02231	1258.63501	1598.08472	-116.17519	1387.89612	1660.14575	-53.23733	1197.86182	1662.70166	-7.37344	1094.22607	1682.01709	29.33823	948.17828	1640.08630	15.64936	818.05359	1673.67175	74.97971	837.99847	1672.88928	72.34760	746.88959	1275.64941	-128.91162	1392.70911	1184.74207	-128.03412	1193.08142	1169.08252	-168.93407	1080.18201	1152.65515	-243.22627	988.89642	1184.84106	-373.53177	916.98242	1149.26306	-328.45370	882.58710	1144.14380	-403.53250	846.78894	1521.62109	-229.05661	946.77167	1304.03992	-214.06032	947.30908	1507.41650	-66.74471	970.26514	1338.86707	-63.84702	972.84302	1592.61328	-227.75984	640.70148	1563.93079	-281.11499	490.80374	1555.25427	-307.85614	235.88120	1514.64954	-344.31186	68.49626	1465.19287	-309.99326	51.94831	1516.65759	-490.07086	54.72417	1255.74512	-115.38750	613.55505	1273.27734	-94.88432	487.26013	1278.54089	88.81619	286.31354	1320.32971	211.56038	146.49347	1364.75720	257.20572	150.08908	1327.52698	108.08291	36.50268	1435.12012	-106.44666	1688.96948																								 
138	1.370	1493.66650	-218.48557	1649.24487	1361.79956	-214.00513	1637.05945	1498.07764	-82.97504	1599.09766	1368.84131	-80.37251	1592.82959	1439.25134	-77.55421	1434.55859	1422.70056	-56.53088	1102.28577	1437.65320	-190.52638	1361.88489	1438.18616	-239.16200	1187.39209	1355.50037	-11.97003	1259.34106	1599.80371	-128.97859	1388.91345	1662.06238	-67.83370	1198.03503	1664.67676	-22.73355	1094.05310	1683.62378	13.00752	947.65875	1641.16748	-0.85630	817.91656	1675.42737	58.15677	837.30292	1674.08655	55.05399	746.16309	1276.98962	-140.07106	1393.95459	1186.87390	-138.00128	1193.93738	1171.16333	-178.93279	1080.71313	1154.43286	-251.84859	988.14624	1185.74780	-381.17838	914.23071	1150.23230	-335.42645	880.52722	1144.58069	-409.76624	843.71637	1522.79224	-242.77878	948.93811	1305.48657	-227.39539	948.47919	1508.21204	-80.20512	972.44720	1339.87830	-77.16710	973.20605	1594.38306	-240.10936	643.39709	1565.96741	-292.40054	492.40689	1557.45471	-313.73920	236.38585	1515.36914	-346.09207	68.37192	1466.41541	-311.11691	52.95358	1515.70923	-492.20657	49.78693	1256.43188	-132.41887	613.25055	1272.98743	-114.17187	486.42953	1279.48328	73.90099	290.87500	1321.62964	200.92532	155.51289	1367.00891	244.94890	161.65352	1327.63489	107.27559	37.29371	1436.61780	-117.80952	1690.34314																								 
